<svg id="_x33_0" enable-background="new 0 0 64 64" height="512" viewBox="0 0 64 64" width="512" xmlns="http://www.w3.org/2000/svg" xmlns:xlink="http://www.w3.org/1999/xlink"><linearGradient id="SVGID_1_" gradientUnits="userSpaceOnUse" x1="32.002" x2="32.002" y1="63" y2="1"><stop offset="0" stop-color="#9f2fff"/><stop offset="1" stop-color="#0bb1d3"/></linearGradient><path d="m61.955 24.631c-.279-.572-.621-1.078-.992-1.551.008-.145.035-.288.036-.434.013-1.514-.274-3.021-.853-4.477-.971-2.464-2.773-4.58-4.968-5.87-.707-1.668-1.861-3.218-3.415-4.503-1.612-1.339-3.401-2.271-5.093-2.672-.28-.795-.731-1.537-1.348-2.176-1.193-1.238-2.857-1.948-4.563-1.948h-7.759-1-8.759c-1.706 0-3.37.71-4.564 1.948-.61.632-1.058 1.365-1.339 2.15-1.855.345-3.74 1.294-5.365 2.722-1.653 1.455-2.859 3.252-3.477 5.163-.021.059-.035.126-.055.186-2.102 1.217-3.67 2.301-4.654 4.945-.548 1.445-.819 2.987-.784 4.458 0 .03.006.059.007.089-1.638 2.125-2.351 5.391-1.848 8.662.212 1.388 1.494 4.172 1.855 4.938-.109 2.1.415 4.315 1.523 6.348.965 1.755 2.288 3.206 3.823 4.204.536 2.037 1.639 3.972 3.156 5.493.429.425 1.729 1.642 2.573 2.277.124.209.247.418.392.621 1.271 1.792 3.272 3.235 5.633 4.062 1.37.479 2.756.723 4.123.732.074.074.142.15.219.222l.298.27h.014c1.88 1.599 4.49 2.51 7.229 2.51 3.123 0 5.926-1.538 7.562-3.014 1.23-.029 2.491-.266 3.729-.69 2.369-.812 4.358-2.26 5.603-4.074.344-.5.602-1.021.817-1.549.047-.027.097-.045.144-.073.798-.445 1.559-.997 2.265-1.643 1.599-1.479 3.205-3.134 3.825-5.63 1.388-.977 2.6-2.335 3.506-3.993 1.296-2.366 1.549-4.114 1.549-6.334h-.017c.05-.074.104-.143.152-.219.807-1.248 1.383-2.719 1.666-4.255.442-2.43.141-4.879-.846-6.895zm-5.32-3.713c-.137-.362-.305-.711-.506-1.048-.222-.362-.475-.694-.743-1.009.471-1.05.67-2.215.589-3.451.988.974 1.792 2.174 2.313 3.496.483 1.217.723 2.471.712 3.72-.005.357-.036.714-.09 1.067l-.023.023c.006.006.01.013.016.019-.056.351-.135.699-.239 1.041-.295.965-.747 1.78-1.353 2.433-.626.695-1.407 1.201-2.309 1.5-.177.047-.952.145-1.369.198-.181.023-.346.044-.489.063.173-.828.485-1.577.891-2.151.57-.167 1.097-.445 1.529-.821.44-.375.791-.84 1.043-1.385.517-1.115.526-2.394.028-3.695zm-25.083 28.483c-.099-.141-.203-.268-.305-.401h1.152c.711 0 1.389.072 2.016.214l.127.024c1.282.275 2.445.808 3.371 1.548.396.313.707.619.954.932l.063.075c.11.136.212.289.302.435l.078.115c.324.517.528 1.062.624 1.626-.645.056-1.262.024-1.796-.11-.181-.042-.332-.095-.473-.154-.213-.409-.521-.8-.919-1.152-1.037-.934-2.555-1.493-4.174-1.539-.064-.008-.106-.007-.154-.008-.225-.544-.509-1.08-.866-1.605zm.702 7.577c-.038.002-.075.007-.113.008.016-.027.035-.055.051-.082.019.025.042.048.062.074zm6.868-8.518c-.248.075-.468.166-.689.255-.698-.454-1.467-.829-2.294-1.105.717-.415 1.503-.77 2.35-1.036.227-.073.462-.138.695-.197 1.445-.371 2.966-.483 4.415-.279.316.04.633.096.934.167 1.338.323 2.396.909 3.138 1.693-.729.529-1.524.874-2.258.98-.431-.327-.984-.577-1.658-.738-.305-.075-.626-.129-.937-.159-1.166-.135-2.472.03-3.696.419zm5.444-5.578c-.422.364-.785.772-1.114 1.199-.968-.102-1.972-.087-2.972.036.575-1.076 1.396-2.081 2.401-2.907.754-.625 1.566-1.118 2.44-1.476 1.232-.545 2.599-.782 3.742-.717 1.516.091 2.77.668 3.613 1.653.178.216.326.427.445.63-.262.195-.535.356-.819.48-.237.104-.473.155-.706.185-.407-.443-.953-.745-1.634-.882-1.401-.287-3.18.195-4.667 1.239-.256.167-.501.36-.729.56zm5.043-6.523-.046.091c-.031.057-.061.115-.078.153-.065.137-.113.287-.173.432-.043-.003-.085-.011-.128-.014-.862-.055-1.81.047-2.751.263.221-.632.512-1.259.87-1.865.321-.553.714-1.093 1.171-1.609 1.231-1.398 3.11-2.81 4.533-2.81 1.874 0 2.953.151 3.598.502-.286.797-.725 1.471-1.254 1.942-.033-.023-.064-.053-.097-.073-.85-.546-1.976-.473-3.036.143-1.012.563-1.962 1.6-2.609 2.845zm-1.195-14.829c.03.114.076.243.12.352.138.344.296.668.467.978-.054.058-.112.109-.165.169-.489.549-.92 1.164-1.293 1.817-.39-.666-.724-1.394-.975-2.174-.227-.716-.392-1.461-.489-2.196-.148-1.288-.083-2.551.195-3.677.017-.077.04-.154.092-.305.431-1.538 1.26-2.686 2.35-3.288.597.664 1.006 1.376 1.184 2.07.003.009.002.018.005.027-.662.344-1.197.942-1.493 1.705-.079.161-.143.336-.184.489-.362 1.229-.288 2.686.186 4.033zm6.378 2.241c-.051.11-.117.21-.184.308-.536.19-1.27.492-1.745.991-.887.965-1.513 2.346-1.756 3.85-.022.107-.036.225-.049.36-.006.05-.006.096-.012.145-1.211.496-2.293 1.336-3.049 2.028.019-1.009.068-2.031.173-2.599.071-.392.156-.733.269-1.07.391-1.289 1.045-2.473 1.889-3.421 1.306-1.46 2.92-2.287 4.558-2.352.137.512.191 1.146-.094 1.76zm-7.805-16.478c1.164.406 2.373 1.107 3.501 2.043 1.483 1.228 2.551 2.713 3.086 4.295l.147.417c.017.058.033.117.049.175.39 1.491.285 2.887-.309 4.048-.179.362-.382.67-.627.953-.652.766-1.522 1.297-2.548 1.576-.219-.68-.309-1.351-.263-1.971.516-.172.96-.451 1.298-.839.339-.396.551-.875.625-1.385.102-.55.062-1.187-.11-1.833-.257-1.001-.826-2.01-1.626-2.896-.286-.334-.625-.662-1.037-1-.818-.67-1.741-1.176-2.659-1.505.278-.654.438-1.356.473-2.078zm-1.621 3.81c.574.145 1.172.398 1.748.758-1.13.823-1.992 2.056-2.5 3.563-.786-.702-1.614-1.656-1.614-2.424 0-.629.086-1.094.19-1.433.048.026.088.067.138.088.66.277 1.377.128 1.923-.412.043-.043.074-.096.115-.14zm-5.174-2.317c.345-.387.701-.596 1.23-.877.369.445.578 1.001.578 1.591 0 .025.01.049.01.074-.491.58-1.01 1.666-1.01 3.426 0 2.084 2.207 3.927 3.103 4.589-.075.586-.107 1.19-.094 1.812-.482-.279-.951-.596-1.402-.953-1.69-1.327-2.888-3.03-3.374-4.794-.51-1.87-.169-3.599.959-4.868zm-1.494-1.329c-.781.878-1.294 1.901-1.536 3.014-.014-.063-.018-.127-.038-.189-.134-.409-.16-.841-.075-1.285.177-.933.914-1.706 1.835-1.923.077-.018.152-.017.228-.029-.139.122-.277.257-.414.412zm-5.698-4.457h7.759c1.167 0 2.305.487 3.125 1.336.755.782 1.15 1.78 1.114 2.81-.033.918-.379 1.793-.98 2.487-.011-.04-.018-.085-.018-.133 0-1.383-.624-2.669-1.711-3.53-1.086-.86-2.495-1.167-3.865-.843-1.677.395-3.02 1.801-3.341 3.497-.146.769-.098 1.557.141 2.283-.002.022-.057.093-.139.093h-2.085zm0 10h2.085c.688 0 1.339-.333 1.744-.893.075-.104.13-.216.184-.327-.021.776.066 1.579.29 2.403.599 2.176 2.043 4.249 4.064 5.836.911.72 1.889 1.304 2.91 1.753.104.51.227 1.015.383 1.511.45 1.392 1.117 2.658 1.931 3.727-.018.056-.043.109-.06.164-.135.402-.244.835-.332 1.319-.251 1.353-.222 4.372-.207 5.272-.144.213-.294.426-.419.643-.689 1.167-1.165 2.418-1.421 3.661-.895.408-1.752.94-2.546 1.598-1.658 1.364-2.873 3.073-3.527 4.945-.066.02-.135.036-.199.056-1.688.528-3.212 1.355-4.429 2.385-.343-.03-.693-.053-1.052-.053h-3.267c-1.11-.762-2.449-1.427-3.582-1.859-.007-.023-.01-.046-.017-.069-.646-1.993-1.873-3.814-3.544-5.263-.752-.658-1.345-1.101-2.174-1.52-.236-1.377-.708-2.749-1.402-3.992-.342-.629-1.138-1.449-1.53-1.835.167-1.238.15-2.551-.072-3.858-.072-.427-.166-.842-.285-1.266 1.115-1.054 2.025-2.32 2.625-3.718.257-.593.439-1.206.582-1.827.82-.435 1.6-.972 2.285-1.583 1.858-1.637 3.173-3.742 3.701-5.923.662-2.658.143-5.304-1.38-7.269.255-.016.514-.008.778.055.921.217 1.658.99 1.835 1.923.084.443.059.875-.075 1.284-.204.622-.097 1.288.294 1.827.404.56 1.056.893 1.744.893h3.085zm-4.781 38.379c-.497-.707-1.2-1.354-2.023-1.866-.103-.065-.223-.12-.334-.181.104-.591.149-1.201.115-1.832 1.163.553 2.367 1.281 3.049 1.975.308.307.606.667.881 1.061.471.692.794 1.406.962 2.115.217.945.169 1.857-.142 2.712-.15.414-.414.828-.776 1.251-.784-.312-1.361-.772-1.672-1.239.247-.266.44-.562.555-.882.094-.247.148-.51.166-.833.027-.743-.235-1.513-.781-2.281zm-12.448-33.857c-.041-.149-.093-.299-.147-.436-.322-.822-.858-1.427-1.544-1.782.004-.019.004-.035.008-.054.082-.345.213-.692.382-1.033 1.46.566 2.544 1.612 3.139 3.159.029.059.053.117.079.205.323.995.396 2.089.218 3.243-.11.677-.31 1.351-.594 2.005-.383.893-.922 1.719-1.568 2.452-.316-.656-.69-1.269-1.111-1.837.34-.501.626-1.033.861-1.656.031-.082.061-.166.084-.247.49-1.411.556-2.848.193-4.019zm6.049-7.146c.105-.278.18-.569.18-.876 0-.561.189-1.092.525-1.525 1.321 1.501 1.796 3.647 1.251 5.836-.435 1.792-1.529 3.532-3.086 4.903-.224.199-.462.386-.707.565-.029-.797-.15-1.566-.384-2.287-.009-.03-.019-.056-.029-.086 1.141-1.188 1.955-2.613 2.278-4.066.207-.917.181-1.752-.028-2.464zm-1.704-6.04c.82-.849 1.958-1.336 3.125-1.336h7.759v8h-2.085c-.081 0-.136-.071-.138-.096.237-.724.286-1.512.14-2.28-.321-1.696-1.664-3.102-3.34-3.497-.357-.084-.717-.126-1.073-.126-1.01 0-1.989.333-2.792.969-1.088.861-1.712 2.147-1.712 3.53 0 .048-.007.093-.018.133-.602-.696-.947-1.569-.98-2.487-.036-1.029.359-2.027 1.114-2.81zm-1.358 6.916c.354.348.787.514 1.23.52-.014.2-.04.41-.09.632-.199.895-.647 1.789-1.288 2.592-.727-1.058-1.717-1.889-2.905-2.448.054-.053.1-.118.155-.169.796-.728 1.824-1.209 2.732-1.328.059.065.104.139.166.201zm-8.548 2.984c.05-.193.099-.386.178-.604.518-1.603 1.523-3.093 2.906-4.311 1.147-1.009 2.433-1.727 3.711-2.095.026.7.185 1.378.442 2.017-1.041.305-2.086.883-2.942 1.665-.33.306-.629.63-.909.985-.709.885-1.212 1.885-1.453 2.894-.156.659-.185 1.269-.093 1.766.069.519.26.996.548 1.375.331.441.806.756 1.383.939.04.602-.054 1.274-.289 1.993-1.056-.245-1.948-.778-2.601-1.597-.224-.274-.416-.583-.59-.958-.558-1.162-.658-2.574-.291-4.069zm-4.55 4.581c.537-1.444 1.292-2.27 2.339-3.01-.018.98.132 1.916.452 2.776-.172.328-.336.673-.478 1.052-.125.339-.227.689-.305 1.026-.294 1.249-.291 2.467.006 3.502.138.529.356 1.001.632 1.383.29.422.65.737 1.072.954l.032.032c.568.557 1.016 1.362 1.293 2.282-.999-.14-1.848-.266-1.997-.301-.834-.295-1.551-.787-2.132-1.463-.58-.67-1.009-1.48-1.274-2.399-.188-.676-.288-1.384-.297-2.125-.029-1.217.197-2.498.657-3.709zm-1.895 14.143c-.309-.783-.561-1.513-.626-1.94-.288-1.873-.116-3.721.434-5.249.351.97.844 1.843 1.486 2.585.478.556 1.03 1.011 1.635 1.385-.1.053-.203.097-.301.156-.159.095-.465.32-.468.322-.924.674-1.659 1.615-2.16 2.741zm4.261 10.991c-.659-.663-1.251-1.43-1.732-2.304-1.074-1.97-1.508-4.217-1.191-6.164l.013-.091c.256-1.546.96-2.808 1.995-3.563 0 0 .203-.153.314-.219.653-.396 1.385-.602 2.167-.61h1.401c-.016.729-.161 1.407-.435 1.978-.028.057-.058.102-.087.155-.772-.195-1.517-.128-2.079.235-.23.14-.417.31-.569.518-.466.551-.747 1.359-.812 2.349-.048.832.076 1.765.361 2.704.144.464.333.927.565 1.38.173.334.368.644.576.945-.306.837-.47 1.739-.487 2.687zm1.172-5.984c-.14-.571-.219-1.127-.191-1.61.01-.154.031-.276.052-.396.131.02.262.039.391.039.136 0 .306 0 .458-.035.616-.107 1.2-.443 1.686-.971.292-.316.54-.688.763-1.144.5-1.042.715-2.28.622-3.558-.012-.238-.036-.476-.068-.686-.013-.128-.028-.265-.049-.366-.29-1.654-1.02-3.124-2.06-4.142-.294-.292-.568-.551-.894-.759-.127-.19-.233-.422-.307-.704-.131-.458-.168-.976-.131-1.523 1.213.268 2.383 1.037 3.36 2.242.795.989 1.406 2.204 1.768 3.52.098.349.178.698.24 1.065.233 1.377.212 2.759-.062 4.009-.134.648-.33 1.248-.583 1.788-.313.681-.708 1.274-1.173 1.764-.731.771-1.599 1.254-2.556 1.432-.472.076-.875.083-1.266.035zm4.67 3.146c-.523.166-.965.463-1.252.852-.095.107-.15.21-.152.218-.466.724-.585 1.738-.334 2.86.165.717.459 1.417.864 2.061.188.315.416.621.667.92-.097.194-.185.39-.254.584-.285.76-.402 1.561-.386 2.37-.029-.028-.065-.062-.091-.088-1.365-1.369-2.337-3.138-2.738-4.989-.019-.084-.031-.169-.052-.301-.286-1.544-.133-2.986.442-4.173.109-.228.246-.464.399-.691.698-1 1.686-1.576 2.854-1.699.142.538.195 1.067.149 1.55-.021.191-.064.364-.116.526zm.213 3.487c-.07-.312-.09-.597-.068-.846.077-.032.157-.052.232-.091.383-.205.709-.485.968-.829.415-.549.67-1.232.76-2.043.096-.996-.069-2.071-.474-3.097-.087-.23-.197-.466-.319-.708.309-.436.593-.899.827-1.408.117-.248.212-.516.309-.783.148.178.277.345.343.466.664 1.19 1.101 2.506 1.264 3.814.084.631.099 1.286.044 1.934-.067.694-.219 1.349-.452 1.944l-.047.128c-.42 1.012-1.099 1.822-1.973 2.348-.29.176-.596.303-.914.404-.226-.402-.404-.816-.5-1.233zm6.695 12.777c-1.973-.69-3.628-1.874-4.665-3.334-.422-.59-.723-1.206-.896-1.829l-.101-.347c-.198-.88-.143-1.741.169-2.572.077-.215.177-.426.303-.636.702-1.197 1.919-2.058 3.514-2.488.118-.031.243-.047.362-.073.411.779.567 1.512.526 2.028-.088.018-.186.025-.271.047-.822.208-1.473.547-1.924.997-.274.264-.475.552-.621.902-.373.945-.144 2.034.633 3.049.351.479.804.919 1.333 1.3.691.512 1.542.945 2.474 1.256.139.045.297.09.455.135.099.705.305 1.389.619 2.038-.634-.099-1.271-.25-1.91-.473zm3.006-7.823c-.174.65-.468 1.235-.874 1.737-.688.846-1.49 1.35-2.465 1.591-.039-.027-.087-.048-.124-.076-.366-.263-.677-.563-.913-.884-.272-.356-.408-.692-.403-.936 1.018-.036 1.864-.404 2.375-1.052.12-.146.223-.31.298-.471.648-1.312.299-3.293-.881-5.033-.338-.515-.75-.987-1.207-1.416.174-.58.309-1.183.371-1.826.013-.15.007-.298.014-.448.219.168.442.35.7.576 1.38 1.196 2.429 2.749 2.953 4.364.436 1.38.492 2.712.156 3.874zm8.218 11.446c-2.388 0-4.637-.818-6.169-2.244l-.153-.138c-1.009-.998-1.585-2.176-1.671-3.424-.008-.107-.007-.205-.007-.312 0-1.244.508-2.446 1.434-3.468.469.333.866.712 1.151 1.119.05.07.09.137.13.205-.401.53-.643 1.091-.691 1.611-.019.113-.024.227-.024.34 0 1.625 1.427 3.198 3.558 3.919.793.26 1.614.392 2.442.392.744 0 1.47-.112 2.166-.318.685.418 1.461.755 2.303.978.037.01.077.015.115.025-1.279.742-2.874 1.315-4.584 1.315zm10.642-3.596c-1.179.406-2.399.616-3.527.596l-.748-.067-.026.024c-.478-.04-.933-.117-1.358-.23-.938-.249-1.767-.658-2.403-1.189-.598-.491-1.038-1.096-1.308-1.796-.209-.544-.288-1.106-.257-1.678.811.098 1.553.371 2.119.78.019.056.025.114.048.17.242.564.715 1.041 1.341 1.363.326.183.706.323 1.144.425.522.131 1.098.198 1.711.198.615 0 1.249-.07 1.883-.209.315-.069.631-.148.934-.247.778-.252 2.039-.572 2.051-.575l-.001-.004c.228.021.463.035.716.035.565 0 1.139-.08 1.713-.195-1.003 1.129-2.401 2.039-4.032 2.599zm8.124-6.919c-.588.538-1.222.998-1.901 1.377-1.28.744-2.63 1.138-3.904 1.138-.318 0-.598-.021-.871-.066-1.252-.186-2.319-.776-3.153-1.776-.055-.082-.428-.659-.431-.66-.051-.091-.09-.19-.136-.284.553-.127 1.106-.214 1.631-.214.153 0 .306.011.462.024.552.626 1.418.976 2.463.976.098 0 .184-.002.278-.013 1.386-.07 2.901-.725 4.188-1.823.428-.369.801-.787 1.132-1.215.227.024.453.051.684.051.676 0 1.355-.112 2.028-.31-.567.93-1.38 1.787-2.47 2.795zm6.93-9.11c-.83 1.519-1.939 2.746-3.239 3.568-.242.165-.501.313-.798.456-1.053.512-2.102.706-3.126.55-.562-.081-1.102-.278-1.605-.585-.727-.444-1.295-1.074-1.71-1.862.737-.364 1.481-.526 2.096-.472.198.238.43.453.734.634.315.172.656.277 1.02.317.114.016.226.019.338.019.542 0 1.115-.131 1.698-.389.837-.364 1.602-.931 2.272-1.685.35-.39.651-.797.922-1.247.239-.399.436-.813.595-1.23.677-.273 1.325-.651 1.931-1.118-.172.961-.502 1.9-1.128 3.044zm3.137-10.209c-.235 1.279-.712 2.5-1.381 3.535-.978 1.533-2.309 2.619-3.767 3.062-.739.241-1.46.297-2.267.174-.711-.125-1.359-.401-1.947-.803.372-.669.856-1.242 1.369-1.629.341.233.714.398 1.127.47.129.013.256.025.384.025.674 0 1.376-.273 2.005-.772 1.166-.864 2.051-2.341 2.416-4.006.039-.141.066-.295.088-.429.15-.81.172-1.635.08-2.422.594-.684 1.067-1.49 1.417-2.405.636 1.547.81 3.371.476 5.2z" fill="url(#SVGID_1_)"/></svg>