<svg id="Layer_1" enable-background="new 0 0 507.112 507.112" height="512" viewBox="0 0 507.112 507.112" width="512" xmlns="http://www.w3.org/2000/svg"><g><g><path d="m507.112 253.556c0 39.632-9.093 77.141-25.306 110.554-41.074 84.645-127.847 122.121-228.249 122.121-140.035 0-228.697-92.64-228.697-232.675 0-87.522 19.486-164.687 86.932-210.252 40.466-27.34 89.251-43.304 141.764-43.304 140.035 0 253.556 113.521 253.556 253.556z" fill="#413a89"/><path d="m340.254 407.277c-140.035 0-253.556-113.521-253.556-253.556 0-39.637 9.102-77.145 25.319-110.559-67.57 45.545-112.017 122.776-112.017 210.394l138.189 225.85c34.607 17.713 73.82 27.706 115.367 27.706 100.403 0 187.172-58.358 228.246-143.004-40.426 27.252-89.126 43.169-141.548 43.169z" fill="#332c5e"/></g><g><path d="m316.784 243.51-71.1-65.457-113.986-9.029-131.698 21.502v63.513h.007c.075 40.078 9.458 77.967 26.087 111.639l128.566 29.222 134.219 84.504 119.658-119.657z" fill="#73ccfd"/><path d="m288.879 70.869-39.411 95.147 24.676 38.238 39.245 25.683 95.148-39.411z" fill="#b8eafe"/><path d="m95.147 320.336-75.486 31.267c20.967 49.957 57.471 91.776 103.468 119.421l35.94-86.767-23.421-34.662z" fill="#5391da"/><path d="m138.189 479.405h150.69l-39.411-95.147-46.075-10.115-44.324 10.115-35.94 86.767c4.916 2.955 9.934 5.757 15.06 8.38z" fill="#689fd4"/><path d="m0 190.526 95.147 39.411 36.692-25.081 27.23-38.84-39.411-95.147z" fill="#689fd4"/><path d="m119.658 70.869 39.411 95.147 46.833 10.062 43.566-10.062 39.411-95.147z" fill="#99e0fe"/><path d="m408.537 190.526v169.221l-95.148-39.411-8.455-45.199 8.455-45.2z" fill="#99e0fe"/><path d="m249.468 166.016h-90.399l-63.922 63.921v13.933l6.221 16.004-6.221 16.227v30.245l46.583 60.573 17.339 17.339h90.399l52.889-52.889 11.032-73.326v-28.106l-1.751-1.751-18.554-7.671-7.836-18.719z" fill="#b8eafe"/><g fill="#fff"><path d="m313.389 320.336v-62.293l-218.242 48.303v13.99l46.583 46.583 160.627-35.55z"/><path d="m95.147 276.101 216.491-47.915-26.39-26.39-190.101 42.074z"/></g></g><g fill="#fff"><path d="m90.575 98.125c5.144 24.48 24.27 43.605 48.749 48.749-24.48 5.144-43.605 24.27-48.749 48.749-5.144-24.48-24.27-43.605-48.749-48.749 24.479-5.144 43.605-24.27 48.749-48.749z"/><path d="m169.398 52.814c3.311 15.758 15.623 28.07 31.381 31.381-15.758 3.311-28.07 15.623-31.381 31.381-3.311-15.758-15.623-28.07-31.381-31.381 15.759-3.311 28.07-15.623 31.381-31.381z"/><path d="m378.008 375.702c2.564 12.203 12.099 21.738 24.302 24.302-12.203 2.564-21.738 12.099-24.302 24.302-2.564-12.203-12.099-21.738-24.302-24.302 12.203-2.564 21.737-12.099 24.302-24.302z"/></g></g></svg>